<?xml version="1.0" encoding="UTF-8" ?>
<!DOCTYPE svg PUBLIC "-//W3C//DTD SVG 1.1//EN" "http://www.w3.org/Graphics/SVG/1.1/DTD/svg11.dtd">
<svg width="217pt" height="217pt" viewBox="0 0 217 217" version="1.1" xmlns="http://www.w3.org/2000/svg">
<g id="#ffffffff">
<path fill="#ffffff" opacity="1.00" d=" M 3.41 0.00 L 213.41 0.00 C 214.63 1.27 215.85 2.54 217.00 3.89 L 217.00 140.64 C 216.72 150.45 213.12 160.20 206.40 167.43 C 199.00 175.63 188.05 180.64 176.97 180.52 C 166.86 180.48 156.76 180.52 146.65 180.49 C 134.89 192.17 123.25 203.98 111.45 215.61 C 109.73 217.62 106.49 216.95 104.94 215.07 C 93.39 203.55 81.89 191.98 70.33 180.48 C 60.22 180.53 50.12 180.48 40.01 180.52 C 27.49 180.60 15.19 174.17 7.91 164.01 C 3.16 157.75 0.89 150.03 0.00 142.31 L 0.00 3.45 C 1.13 2.29 2.27 1.14 3.41 0.00 M 8.50 8.50 C 8.52 53.00 8.47 97.51 8.53 142.01 C 9.11 157.87 23.09 171.79 38.96 172.25 C 49.97 172.27 60.99 172.22 72.00 172.26 C 74.07 172.13 75.57 173.72 76.94 175.05 C 87.48 185.64 98.07 196.18 108.62 206.76 C 119.47 195.91 130.33 185.07 141.16 174.20 C 142.16 173.14 143.47 172.21 144.99 172.26 C 156.00 172.22 167.02 172.27 178.03 172.25 C 190.76 171.84 202.66 162.94 206.76 150.90 C 208.27 146.80 208.70 142.41 208.75 138.07 C 208.74 94.88 208.76 51.69 208.74 8.50 C 141.99 8.51 75.25 8.50 8.50 8.50 Z" />
<path fill="#ffffff" opacity="1.00" d=" M 48.41 45.64 C 87.94 45.30 127.50 45.60 167.04 45.49 C 169.15 45.21 171.39 46.83 171.50 49.00 C 172.07 51.58 169.61 54.12 167.02 53.74 C 127.74 53.72 88.46 53.82 49.18 53.69 C 44.81 53.58 44.13 46.56 48.41 45.64 Z" />
<path fill="#ffffff" opacity="1.00" d=" M 47.37 82.30 C 48.76 81.47 50.49 81.85 52.04 81.73 C 90.37 81.78 128.71 81.73 167.05 81.75 C 170.67 81.08 173.06 86.04 170.57 88.60 C 169.56 90.05 167.65 90.02 166.08 90.01 C 127.33 89.97 88.59 90.03 49.84 89.99 C 45.74 90.43 43.76 84.34 47.37 82.30 Z" />
<path fill="#ffffff" opacity="1.00" d=" M 48.08 118.22 C 50.04 117.83 52.05 118.03 54.03 117.99 C 82.70 118.02 111.37 117.98 140.05 118.01 C 142.32 117.70 144.49 119.64 144.43 121.95 C 144.62 124.37 142.34 126.46 139.96 126.24 C 109.66 126.21 79.36 126.35 49.06 126.18 C 44.95 125.92 44.17 119.46 48.08 118.22 Z" />
</g>
</svg>
