<?xml version="1.0" encoding="UTF-8" ?>
<!DOCTYPE svg PUBLIC "-//W3C//DTD SVG 1.1//EN" "http://www.w3.org/Graphics/SVG/1.1/DTD/svg11.dtd">
<svg width="240pt" height="239pt" viewBox="0 0 240 239" version="1.1" xmlns="http://www.w3.org/2000/svg">
<g id="#ffffffff">
<path fill="#ffffff" opacity="1.00" d=" M 96.01 2.99 C 96.88 -0.07 101.33 -0.76 103.19 1.80 C 148.17 46.82 193.20 91.79 238.17 136.82 C 240.44 138.80 239.43 142.84 236.59 143.69 C 213.52 153.69 190.46 163.71 167.39 173.72 C 170.21 181.36 175.60 188.50 175.03 197.01 C 174.88 205.57 169.45 213.79 161.60 217.22 C 149.10 222.88 136.52 228.34 124.01 233.99 C 119.18 236.08 114.37 238.83 108.94 238.78 C 100.00 239.29 91.09 234.00 87.22 225.93 C 85.01 221.09 82.83 216.23 80.77 211.33 C 73.49 214.47 66.18 217.55 58.96 220.81 C 52.76 225.59 48.39 232.75 41.07 236.10 C 30.90 240.99 17.80 239.18 9.64 231.28 C 0.99 223.42 -1.67 209.91 3.22 199.31 C 6.33 191.87 13.27 187.24 18.42 181.35 C 19.69 179.23 20.47 176.87 21.50 174.62 C 46.34 117.42 71.14 60.19 96.01 2.99 M 101.31 11.68 C 77.22 67.15 53.16 122.63 29.06 178.09 C 28.41 179.64 27.60 181.14 27.20 182.77 C 37.06 192.75 47.03 202.62 56.94 212.56 C 113.95 187.83 170.96 163.07 227.98 138.35 C 185.76 96.13 143.52 53.91 101.31 11.68 M 88.40 208.01 C 90.48 212.80 92.49 217.63 94.80 222.33 C 97.17 227.31 102.57 230.62 108.09 230.54 C 111.58 230.71 114.72 228.99 117.82 227.62 C 131.31 221.55 144.89 215.64 158.36 209.54 C 165.06 206.48 168.61 198.04 165.93 191.14 C 163.98 186.38 161.81 181.71 159.68 177.03 C 135.94 187.40 112.14 197.64 88.40 208.01 M 9.96 204.97 C 7.08 213.47 11.16 223.60 19.03 227.87 C 24.33 231.02 31.16 231.44 36.78 228.86 C 42.25 226.55 45.74 221.50 50.01 217.62 C 40.66 208.30 31.35 198.95 22.00 189.63 C 17.56 194.35 11.82 198.44 9.96 204.97 Z" />
</g>
</svg>
