<?xml version="1.0" encoding="UTF-8" ?>
<!DOCTYPE svg PUBLIC "-//W3C//DTD SVG 1.1//EN" "http://www.w3.org/Graphics/SVG/1.1/DTD/svg11.dtd">
<svg width="213pt" height="227pt" viewBox="0 0 213 227" version="1.1" xmlns="http://www.w3.org/2000/svg">
<g id="#ffffffff">
<path fill="#ffffff" opacity="1.00" d=" M 92.76 4.96 C 92.72 3.35 93.50 1.44 95.15 0.92 C 97.76 -0.57 101.51 1.88 100.99 4.93 C 101.01 25.66 101.00 46.39 101.00 67.12 C 127.80 93.94 154.61 120.75 181.43 147.55 C 183.16 148.91 183.82 151.55 182.42 153.39 C 181.10 155.46 177.67 155.68 176.05 153.90 C 172.61 150.56 169.29 147.11 165.87 143.75 C 144.84 164.79 123.79 185.82 102.77 206.86 C 92.04 217.52 75.18 221.29 60.90 216.36 C 54.11 214.17 48.09 210.01 43.21 204.85 C 32.68 194.28 22.11 183.75 11.58 173.19 C 4.84 166.27 0.77 156.98 0.00 147.37 L 0.00 141.56 C 0.80 132.21 4.53 122.99 11.13 116.24 C 32.35 95.04 53.55 73.83 74.76 52.62 C 71.23 48.99 67.48 45.56 64.08 41.81 C 61.22 38.39 66.36 33.23 69.80 36.07 C 77.58 43.52 85.06 51.30 92.74 58.87 C 92.77 40.90 92.73 22.93 92.76 4.96 M 80.60 58.50 C 59.45 79.73 38.23 100.87 17.06 122.08 C 9.12 130.44 6.15 143.18 9.75 154.16 C 11.34 159.62 14.60 164.45 18.58 168.46 C 29.24 179.08 39.85 189.76 50.52 200.36 C 57.12 207.00 66.56 210.71 75.91 210.20 C 83.71 209.66 91.30 206.40 96.92 200.94 C 117.95 179.92 138.98 158.89 160.00 137.86 C 140.33 118.21 120.68 98.53 101.01 78.88 C 101.00 87.60 100.99 96.32 101.01 105.05 C 103.82 105.92 106.46 107.38 108.54 109.49 C 115.12 116.05 114.20 128.19 106.54 133.54 C 98.92 139.60 86.36 136.58 82.43 127.63 C 77.90 119.00 83.26 107.32 92.74 105.10 C 92.74 93.59 92.77 82.08 92.73 70.57 C 88.66 66.58 84.68 62.49 80.60 58.50 Z" />
<path fill="#ffffff" opacity="1.00" d=" M 182.57 163.70 C 186.26 161.09 189.12 165.29 191.46 167.60 C 196.28 172.77 201.80 177.27 206.40 182.64 C 213.81 191.55 214.31 205.32 207.77 214.85 C 201.51 224.42 188.90 228.96 177.93 225.90 C 169.15 223.70 161.77 216.70 159.05 208.08 C 155.88 198.66 158.41 187.55 165.54 180.57 C 171.26 174.99 176.76 169.17 182.57 163.70 M 170.96 186.96 C 165.98 192.22 164.52 200.50 167.56 207.10 C 170.44 213.87 177.56 218.62 184.94 218.53 C 193.12 218.79 200.96 212.93 203.27 205.12 C 205.17 198.90 203.66 191.67 199.10 186.96 C 194.40 182.27 189.71 177.56 185.00 172.88 C 180.32 177.58 175.58 182.21 170.96 186.96 Z" />
</g>
</svg>
