<?xml version="1.0" encoding="UTF-8" ?>
<!DOCTYPE svg PUBLIC "-//W3C//DTD SVG 1.1//EN" "http://www.w3.org/Graphics/SVG/1.1/DTD/svg11.dtd">
<svg width="233pt" height="193pt" viewBox="0 0 233 193" version="1.1" xmlns="http://www.w3.org/2000/svg">
<g id="#ffffffff">
<path fill="#ffffff" opacity="1.00" d=" M 2.18 0.00 L 228.91 0.00 C 230.97 0.80 232.59 2.61 232.24 4.96 C 232.25 40.68 232.27 76.40 232.23 112.11 C 232.01 128.48 221.52 144.12 206.43 150.45 C 199.73 153.47 192.30 154.28 185.02 154.01 C 172.02 153.99 159.01 154.01 146.00 154.00 C 148.54 164.17 151.10 174.33 153.62 184.51 C 159.69 184.76 165.89 183.90 171.88 184.99 C 176.01 187.30 173.48 194.15 168.56 193.00 L 69.39 193.00 C 67.47 192.91 63.63 192.72 61.71 192.63 C 57.71 191.90 58.12 185.30 61.95 184.69 C 67.68 184.22 73.44 184.63 79.19 184.50 C 81.73 174.33 84.27 164.17 86.81 154.00 C 72.19 154.00 57.56 154.01 42.94 154.00 C 29.85 153.90 16.99 147.41 9.20 136.89 C -2.06 122.74 0.06 102.90 0.90 86.22 L 0.00 96.21 L 0.00 7.16 C 0.56 4.72 1.17 2.29 2.18 0.00 M 8.75 8.25 C 8.76 42.22 8.72 76.20 8.77 110.17 C 8.74 119.65 12.43 129.18 19.33 135.75 C 25.79 142.17 34.83 145.82 43.92 145.76 C 92.94 145.70 141.96 145.83 190.98 145.69 C 208.42 145.11 223.61 129.72 223.95 112.27 C 224.06 77.60 223.97 42.92 224.00 8.25 C 152.25 8.25 80.50 8.25 8.75 8.25 M 95.37 154.00 C 92.83 164.17 90.31 174.34 87.73 184.50 C 106.84 184.49 125.95 184.50 145.06 184.50 C 142.52 174.34 139.98 164.17 137.44 154.00 C 123.41 154.00 109.39 154.00 95.37 154.00 Z" />
</g>
</svg>
