<?xml version="1.0" encoding="UTF-8" ?>
<!DOCTYPE svg PUBLIC "-//W3C//DTD SVG 1.1//EN" "http://www.w3.org/Graphics/SVG/1.1/DTD/svg11.dtd">
<svg width="173pt" height="301pt" viewBox="0 0 173 301" version="1.1" xmlns="http://www.w3.org/2000/svg">
<g id="#ff4085ff">
<path fill="#fbd53a" opacity="1.00" d=" M 48.71 0.00 L 52.22 0.00 C 60.53 0.46 68.77 2.73 75.99 6.91 C 100.09 20.83 124.22 34.71 148.32 48.63 C 162.59 56.91 172.03 72.62 173.00 89.05 L 173.00 254.14 C 171.96 266.82 166.19 279.14 156.71 287.70 C 148.70 295.26 138.09 299.69 127.21 301.00 L 118.91 301.00 C 107.00 300.49 96.65 294.23 86.74 288.27 C 68.97 278.05 51.23 267.78 33.46 257.55 C 27.66 254.13 21.52 251.11 16.56 246.46 C 6.75 237.63 0.98 224.86 0.00 211.77 L 0.00 48.37 C 0.82 35.92 5.96 23.66 14.93 14.89 C 23.77 5.86 36.16 0.74 48.71 0.00 Z" />
</g>
</svg>
